<svg xmlns="http://www.w3.org/2000/svg" width="400" height="400" id="chat"><path fill="#2A94F4" d="M261.037 297.928c-6.253 6.731-13.381 12.81-21.212 18.095-21.628 14.653-48.694 23.35-78.082 23.35-20.519 0-39.907-4.236-57.086-11.782C80.3 352.407 41.39 350.147 41.39 350.147l30.59-43.054c-23.747-20.488-38.472-49.03-38.472-80.618 0-28.095 11.649-53.787 30.926-73.542 6.822-6.985 14.603-13.238 23.156-18.584-5.194 13.075-8.024 27.127-8.024 41.76 0 69.764 64.234 126.31 143.458 126.31 13.166 0 25.905-1.558 38.013-4.491z"></path><linearGradient id="a" x1="184.772" x2="184.772" y1="113.576" y2="302.419" gradientUnits="userSpaceOnUse"><stop offset=".394" stop-color="#80e8be"></stop><stop offset="1" stop-color="#00c278"></stop></linearGradient><path fill="url(#a)" d="M289.977 226.475c0 27.117-10.845 51.995-28.939 71.454-12.108 2.933-24.847 4.491-38.013 4.491-79.224 0-143.458-56.546-143.458-126.31 0-14.632 2.83-28.685 8.024-41.76 20.936-13.075 46.516-20.773 74.152-20.773 70.822-.001 128.234 50.537 128.234 112.898z"></path><path fill="#CCE9FF" d="m323.458 266.3 34.226 48.175s-43.543 2.525-70.782-25.233a155.02 155.02 0 0 1-25.864 8.686c-12.108 2.933-24.847 4.491-38.013 4.491-79.224 0-143.458-56.546-143.458-126.31 0-14.632 2.83-28.685 8.024-41.76C107.172 85.104 160.419 49.8 223.024 49.8c79.232 0 143.467 56.536 143.467 126.309 0 35.336-16.466 67.27-43.033 90.191z"></path><circle cx="169.462" cy="183.78" r="20.53" fill="#2A94F4"></circle><circle cx="225.065" cy="183.78" r="20.53" fill="#2A94F4"></circle><circle cx="280.669" cy="183.78" r="20.53" fill="#2A94F4"></circle></svg>